PathFileType	4	(X/Y/Z)	9_2_33_p1_0-149_filt_butterworth.trc
DataRate	CameraRate	NumFrames	NumMarkers	Units	OrigDataRate	OrigDataStartFrame	OrigNumFrames
57.0	57.0	4	27	m	57.0	0	149
Frame#	Time	RHip			RKnee			RAnkle			RBigToe			RSmallToe			RHeel			LHip			LKnee			LAnkle			LBigToe			LSmallToe			LHeel			Neck			Head			Nose			RShoulder			RElbow			RWrist			RThumb			RIndex			RPinky			LShoulder			LElbow			LWrist			LThumb			LIndex			LPinky			
		X1	Y1	Z1	X2	Y2	Z2	X3	Y3	Z3	X4	Y4	Z4	X5	Y5	Z5	X6	Y6	Z6	X7	Y7	Z7	X8	Y8	Z8	X9	Y9	Z9	X10	Y10	Z10	X11	Y11	Z11	X12	Y12	Z12	X13	Y13	Z13	X14	Y14	Z14	X15	Y15	Z15	X16	Y16	Z16	X17	Y17	Z17	X18	Y18	Z18	X19	Y19	Z19	X20	Y20	Z20	X21	Y21	Z21	X22	Y22	Z22	X23	Y23	Z23	X24	Y24	Z24	X25	Y25	Z25	X26	Y26	Z26	X27	Y27	Z27	
0	0.0	0.3121728630945923	0.7491285904646552	0.6577688547111898	0.29706673575016695	0.3904193801298249	0.6211466679333841	0.2961747150310545	-0.019815839885193254	0.5993986419064867	0.265200116848441	0.07483575880263085	0.3798421466953436	0.33023302851218045	0.05703811862814889	0.4195321261047102	0.2772219148062751	-0.12804892902611953	0.6899276687922554	0.09521551263823068	0.7490883415258281	0.6418729024274717	0.1134963350503743	0.39506658467438216	0.6393860952914998	0.09016390319531846	-0.0017038147016170263	0.6141922134340634	0.11484615696999745	0.0840655139330909	0.39294877311378457	0.05936310891740536	0.06330998998871591	0.4492230733709495	0.08364340323942596	-0.11543228733783159	0.7033654436152812	0.22467819923263782	1.3067867070940429	0.6730259170353031	0.23061563489298376	1.563075809277537	0.682490429289124	0.22236816225176703	1.4450379512084173	0.5709101864732085	0.3618368367153217	1.216370080818804	0.6536696060582177	0.3774731986288601	0.9651987488742508	0.6062802947803335	0.23402937556611583	0.8260622457168134	0.48917518592614084	0.10204024912811809	0.7646968044393401	0.4432460129258973	0.10130441973470107	0.7388949123717758	0.45396132659798455	0.17000336326933116	0.7059777681405952	0.4579893698190112	0.05533713926386716	1.2259195665827651	0.6459721510804438	0.03148643779852645	0.9812750414383626	0.5839483379955006	0.1348728677196758	0.8248142885585639	0.48307380194566607	0.19193347736223926	0.7434976217681792	0.46494233032969273	0.1881974455220503	0.7199055150445048	0.4453401148135455	0.13016607334761904	0.7069260583354866	0.4815868706096021	
1	0.0175438596491228	0.31224984861750077	0.7476421057696414	0.6574630115363073	0.29512397769383997	0.38994358219162434	0.6183572991145786	0.2961807780011806	-0.01953869464752392	0.6009442346329094	0.26875190896293305	0.06634468383528248	0.38991527633167017	0.3335230218586363	0.056057526595916146	0.4171161805937322	0.27790970147014155	-0.12376939265741516	0.6873002959438733	0.09319310472519535	0.7484697966029141	0.6439281899578407	0.110694091801389	0.3940723071509996	0.638459221506708	0.08973956936360433	-0.0007385906326969893	0.6125446626385959	0.11445669784027683	0.08585892393092029	0.3908930459754925	0.059746900569062004	0.06415909865404795	0.448597098875541	0.08549762764868095	-0.11501970703465289	0.70106903065914	0.2246281141835582	1.3065227560635437	0.6730634967116227	0.23020008495846983	1.5647217535089188	0.6830205726606988	0.22362688503141503	1.4458782435628095	0.5732732315046067	0.3617108818156713	1.2176688888424554	0.6543675777253499	0.37929586774648255	0.9737931022826681	0.6033855391774618	0.23999267331124954	0.8355565601919079	0.4841814036702292	0.12196098001963587	0.7580670044517333	0.4799506417251898	0.1184826260832845	0.7360978977007346	0.4835947608461644	0.17890237047912994	0.7136670764591198	0.46587059032076084	0.05555432168346511	1.225869268792425	0.6463643195695861	0.03390550621157566	0.9840514233993868	0.585337611234592	0.13675467490626148	0.8284308879148231	0.483288734846277	0.20761087741880715	0.7523230014952597	0.4712771901387699	0.1985713730199267	0.7254884845873589	0.4563461608058408	0.14001402770683194	0.7112478619510363	0.4906708173699734	
2	0.0350877192982456	0.3123081746040104	0.7464501211125433	0.6572149178434128	0.29345089265929064	0.3896876221241222	0.6158752675269732	0.29619852727282514	-0.019368229795831665	0.6022286618086873	0.27077852178638423	0.060702038721865914	0.3965762669795873	0.33549683328010105	0.05525977004803856	0.41677848416376984	0.2784745738109966	-0.12017574909526108	0.6851453029625967	0.09147459953028046	0.7478231560351472	0.6456560693115809	0.10825592977657614	0.3934353276357695	0.6374787036221057	0.08952883514156834	4.390414479560345e-05	0.61140955759106	0.11434641761880975	0.08641668384697988	0.39027622931701533	0.05982018036216567	0.06431143452395585	0.44849911441423757	0.08715806994576923	-0.11513461473978055	0.6997295588440271	0.22459582254641522	1.3063919422697672	0.673091553846361	0.2300806022564144	1.5658295078774331	0.6829825332756996	0.22414894521443027	1.445874703911492	0.5767094487188588	0.3616296917719198	1.2185444511524632	0.6548887211341544	0.38105090974634753	0.9794879368217213	0.60072063098887	0.24609916203979387	0.8399456282374934	0.4841155946295779	0.13904147636356165	0.7517988427928712	0.5046615030777485	0.13354845979285832	0.7328671907655103	0.5052517204438333	0.18608040415440125	0.7187829020711176	0.47297956516034945	0.05566634909279624	1.2257740052053483	0.6465557973268505	0.03518901379513561	0.9855504998290341	0.5864806480368325	0.1391033841789015	0.8307047740666728	0.4847609716981733	0.21949178236905176	0.7589859643821213	0.4763989218475837	0.2076598814762594	0.7301212556933803	0.4648669583939047	0.1497241257969931	0.7153235550437885	0.4960058718768194	
3	0.0526315789473684	0.3123497277512404	0.7455257509793501	0.6570189179822586	0.2920270000851713	0.38963153493741043	0.6136765802639355	0.29622445837855127	-0.019288976340705033	0.6032719980193034	0.2716020144770689	0.057391187787791995	0.40044962776277293	0.33640251207348504	0.05462800977929787	0.4180258963809125	0.2789250255367152	-0.11721911673241096	0.6834250350097095	0.09003791559442019	0.7471552181365506	0.6470800387954282	0.10615818646403144	0.3931172156375249	0.636454047068424	0.089508246890852	0.0006523612032265785	0.6107417631049696	0.11444424580811549	0.08604818356749351	0.3907376833899709	0.059674801388161475	0.06398998509171262	0.44878868214626333	0.08863106817339944	-0.11571614047247533	0.6992500943945081	0.22457984897277303	1.3063997612707996	0.6731162534540021	0.23015394213922555	1.5664780346465117	0.6826115624278128	0.22409410052886666	1.4452801741784733	0.5808059814575524	0.3615838832585174	1.2190701895811986	0.6552594860401167	0.38266798494667675	0.9827382709198971	0.5983787101476762	0.25202368899517147	0.8402840410629815	0.48785380374712395	0.15342799031739587	0.74614834708926	0.5191849376992643	0.1465260313625122	0.72951935621147	0.5198954267587506	0.19169180215127712	0.7218552976927546	0.4792546482361265	0.05570219733217141	1.2256708754180063	0.6466015987547546	0.03562377440726159	0.9860298936800327	0.5874164040717458	0.14173607873547706	0.8318703200620726	0.48720434196753293	0.22805684267812115	0.7637737659102005	0.48040124450037747	0.2154139714996117	0.7338932160874355	0.4711862147736777	0.158939532547849	0.7190529808507942	0.49836173242978865	
